<svg width="1072" height="105" viewBox="0 0 1072 105" fill="none" xmlns="http://www.w3.org/2000/svg">
<path d="M121.2 105H100.95L69.4499 75H23.3999V60.15H83.6999C87.8999 60.15 91.6999 59.15 95.0999 57.15C98.4999 55.05 101.2 52.3 103.2 48.9C105.2 45.4 106.2 41.6 106.2 37.5C106.2 33.3 105.2 29.5 103.2 26.1C101.2 22.7 98.4999 20 95.0999 18C91.6999 16 87.8999 15 83.6999 15H14.9999V105H-9.67085e-05V-7.15256e-06H83.6999C90.5999 -7.15256e-06 96.8999 1.69999 102.6 5.1C108.3 8.4 112.8 12.9 116.1 18.6C119.5 24.3 121.2 30.6 121.2 37.5C121.2 43.7 119.8 49.45 117 54.75C114.3 60.05 110.55 64.45 105.75 67.95C101.05 71.35 95.6999 73.55 89.6999 74.55L121.2 105ZM215.932 105H200.932V52.5C200.932 45.6 199.232 39.3 195.832 33.6C192.532 27.9 188.032 23.4 182.332 20.1C176.632 16.7 170.332 15 163.432 15H155.332V105H140.332V-7.15256e-06H163.432C172.932 -7.15256e-06 181.632 2.34999 189.532 7.04999C197.532 11.75 203.832 17.9 208.432 25.5C213.032 17.9 219.282 11.75 227.182 7.04999C235.182 2.34999 243.932 -7.15256e-06 253.432 -7.15256e-06H276.532V105H261.532V15H253.432C246.532 15 240.232 16.7 234.532 20.1C228.932 23.4 224.432 27.9 221.032 33.6C217.632 39.3 215.932 45.6 215.932 52.5V105ZM422.958 105H402.708L371.208 75H325.158V60.15H385.458C389.658 60.15 393.458 59.15 396.858 57.15C400.258 55.05 402.958 52.3 404.958 48.9C406.958 45.4 407.958 41.6 407.958 37.5C407.958 33.3 406.958 29.5 404.958 26.1C402.958 22.7 400.258 20 396.858 18C393.458 16 389.658 15 385.458 15H316.758V105H301.758V-7.15256e-06H385.458C392.358 -7.15256e-06 398.658 1.69999 404.358 5.1C410.058 8.4 414.558 12.9 417.858 18.6C421.258 24.3 422.958 30.6 422.958 37.5C422.958 43.7 421.558 49.45 418.758 54.75C416.058 60.05 412.308 64.45 407.508 67.95C402.808 71.35 397.458 73.55 391.458 74.55L422.958 105ZM563.29 105H543.04L511.54 75H465.49V60.15H525.79C529.99 60.15 533.79 59.15 537.19 57.15C540.59 55.05 543.29 52.3 545.29 48.9C547.29 45.4 548.29 41.6 548.29 37.5C548.29 33.3 547.29 29.5 545.29 26.1C543.29 22.7 540.59 20 537.19 18C533.79 16 529.99 15 525.79 15H457.09V105H442.09V-7.15256e-06H525.79C532.69 -7.15256e-06 538.99 1.69999 544.69 5.1C550.39 8.4 554.89 12.9 558.19 18.6C561.59 24.3 563.29 30.6 563.29 37.5C563.29 43.7 561.89 49.45 559.09 54.75C556.39 60.05 552.64 64.45 547.84 67.95C543.14 71.35 537.79 73.55 531.79 74.55L563.29 105ZM597.422 105H582.422V-7.15256e-06H589.922C597.222 -7.15256e-06 605.122 1.39999 613.622 4.19999C622.222 6.99999 630.822 10.95 639.422 16.05C648.022 21.15 656.122 27.25 663.722 34.35C671.422 41.35 678.022 49.15 683.522 57.75V-7.15256e-06H698.522V105H683.522C683.522 95.8 681.622 87 677.822 78.6C674.122 70.1 669.172 62.3 662.972 55.2C656.772 48 649.872 41.65 642.272 36.15C634.772 30.55 627.122 26 619.322 22.5C611.522 18.9 604.222 16.6 597.422 15.6V105ZM843.179 105H828.179V75H744.329V60H828.179V15H774.329C767.529 15 761.279 16.7 755.579 20.1C749.879 23.4 745.329 27.9 741.929 33.6C738.629 39.3 736.979 45.6 736.979 52.5V105H721.979V52.5C721.979 45.3 723.329 38.55 726.029 32.25C728.729 25.85 732.479 20.25 737.279 15.45C742.079 10.55 747.629 6.75 753.929 4.04999C760.329 1.34999 767.129 -7.15256e-06 774.329 -7.15256e-06H843.179V105ZM883.359 105H868.359V-7.15256e-06H883.359V105ZM930.246 105H915.246V15H900.246V-7.15256e-06H930.246V105ZM1071.47 75C1071.47 80.5 1070.12 85.55 1067.42 90.15C1064.72 94.65 1061.12 98.25 1056.62 100.95C1052.12 103.65 1047.07 105 1041.47 105H950.267V90H1041.47C1045.67 90 1049.22 88.55 1052.12 85.65C1055.02 82.65 1056.47 79.1 1056.47 75C1056.47 70.9 1055.02 67.4 1052.12 64.5C1049.22 61.5 1045.67 60 1041.47 60H980.267C974.767 60 969.717 58.65 965.117 55.95C960.617 53.25 957.017 49.65 954.317 45.15C951.617 40.55 950.267 35.5 950.267 30C950.267 24.5 951.617 19.5 954.317 15C957.017 10.4 960.617 6.75 965.117 4.04999C969.717 1.34999 974.767 -7.15256e-06 980.267 -7.15256e-06H1063.97V15H980.267C976.167 15 972.617 16.5 969.617 19.5C966.717 22.4 965.267 25.9 965.267 30C965.267 34.1 966.717 37.65 969.617 40.65C972.617 43.55 976.167 45 980.267 45H1041.47C1047.07 45 1052.12 46.35 1056.62 49.05C1061.12 51.75 1064.72 55.4 1067.42 60C1070.12 64.5 1071.47 69.5 1071.47 75Z" fill="white"/>
</svg>
